<svg xmlns="http://www.w3.org/2000/svg" width="116.667" height="57.234" viewBox="0 0 116.667 57.234"><defs><style>.a,.d{fill:#006c99;}.b{fill:#ffd400;}.c,.e{fill:#fff;}.c,.d{fill-rule:evenodd;}</style></defs><g transform="translate(-1.078 -0.529)"><path class="a" d="M112.929,57.763H5.893a4.816,4.816,0,0,1-4.815-4.814V26.119A4.816,4.816,0,0,1,5.893,21.3H112.929a4.817,4.817,0,0,1,4.816,4.817v26.83a4.816,4.816,0,0,1-4.816,4.814"/><path class="b" d="M112.929,36.99H5.893a4.816,4.816,0,0,1-4.815-4.816V5.345A4.816,4.816,0,0,1,5.893.529H112.929a4.816,4.816,0,0,1,4.816,4.816V32.174a4.816,4.816,0,0,1-4.816,4.816"/><path class="c" d="M19.282,32.874A14.584,14.584,0,1,0,8.835,15.084a14.612,14.612,0,0,0,10.447,17.79"/><path class="d" d="M29.195,22.065c.012-.069.016-.118.018-.14h0l.441-3.583a.566.566,0,0,0-.147-.441.546.546,0,0,0-.432-.161l-3.94.326-3.936.32a.541.541,0,0,0-.46.346.533.533,0,0,0,.114.565l1.58,1.646a29.541,29.541,0,0,1-6.48,4.49c-2.129,1.042-3.978,1.412-5.072,1.112a2.617,2.617,0,0,1-.317-.106,14.634,14.634,0,0,0,4.6,4.636A12.047,12.047,0,0,0,19.5,29.761a30.863,30.863,0,0,0,6.846-4.741L27.764,26.5a.542.542,0,0,0,.924-.309l.481-3.922Zm6.28-10.742a14.6,14.6,0,0,0-4.495-4.74c.007.021.008.042.017.063a4.172,4.172,0,0,1-.037,2.518,18.6,18.6,0,0,1-3.3,6.116.539.539,0,0,0,.5.86l.09-.009,3.252-.264-.285,2.31a.539.539,0,0,0,.34.568l.06.021a.544.544,0,0,0,.574-.2,18.81,18.81,0,0,0,3.059-5.943,7.515,7.515,0,0,0,.223-1.3"/><path class="a" d="M50.205,11.73l-1.551-.191a4.735,4.735,0,0,0-2.911.6,3.356,3.356,0,0,0-.674,2.488v.179h4.068a.672.672,0,0,1,.7.7v1.337a.664.664,0,0,1-.2.494.691.691,0,0,1-.5.19H45.069v7a.658.658,0,0,1-.2.495.674.674,0,0,1-.487.19H41.867a.652.652,0,0,1-.684-.685v-9.9q0-3.133,1.425-4.443T47.62,8.877a16.315,16.315,0,0,1,2.573.135,1.9,1.9,0,0,1,.921.331.633.633,0,0,1,.191.455v1.236a.685.685,0,0,1-.2.5.667.667,0,0,1-.488.195Z"/><path class="a" d="M52.221,24.4a3.35,3.35,0,0,1-1.489-2.923,3.293,3.293,0,0,1,1.489-2.9,6.7,6.7,0,0,1,3.837-1.011h3.719a2.458,2.458,0,0,0-.551-1.831,2.806,2.806,0,0,0-1.927-.518,2.372,2.372,0,0,0-1.932.681,1.7,1.7,0,0,1-1.365.68H52.328a.676.676,0,0,1-.5-.2.661.661,0,0,1-.2-.489q0-3.222,6.125-3.225a7.055,7.055,0,0,1,4.291,1.2,4.3,4.3,0,0,1,1.618,3.7v6.955a.653.653,0,0,1-.686.684H60.81a.661.661,0,0,1-.5-.2.674.674,0,0,1-.191-.488V24.18a6.832,6.832,0,0,1-4.1,1.263A6.564,6.564,0,0,1,52.221,24.4m2.865-3.9a1.228,1.228,0,0,0-.455.989,1.251,1.251,0,0,0,.471,1,2.035,2.035,0,0,0,1.338.393,6.188,6.188,0,0,0,3.337-1.01V20.124H56.328a1.874,1.874,0,0,0-1.242.381"/><path class="a" d="M64.361,13.887a2.084,2.084,0,0,1-.1-.483c0-.33.188-.5.563-.505h2.089a1.723,1.723,0,0,1,.944.264,1.357,1.357,0,0,1,.572.724l1.844,6.056,1.819-6.056a1.246,1.246,0,0,1,1.282-.988H75.36a1.235,1.235,0,0,1,1.281.988l1.819,6.056L80.3,13.887a1.354,1.354,0,0,1,.573-.724,1.721,1.721,0,0,1,.944-.264h2.088c.368,0,.555.169.562.505a1.469,1.469,0,0,1-.1.483L80.965,24.224a1.367,1.367,0,0,1-.56.725,1.56,1.56,0,0,1-.866.263H77.955a1.557,1.557,0,0,1-.876-.275,1.3,1.3,0,0,1-.55-.713l-2.158-6.7-2.167,6.7a1.306,1.306,0,0,1-.552.713,1.558,1.558,0,0,1-.875.275H69.192a1.555,1.555,0,0,1-.866-.263,1.369,1.369,0,0,1-.561-.725Z"/><path class="a" d="M94.322,15.753l-1.73-.069a3.851,3.851,0,0,0-2.9,1.665v7.179a.662.662,0,0,1-.2.494.675.675,0,0,1-.489.191H86.492a.655.655,0,0,1-.686-.685V13.6a.679.679,0,0,1,.2-.5.661.661,0,0,1,.489-.2h2.516a.662.662,0,0,1,.495.2.7.7,0,0,1,.191.5V14.3A9.485,9.485,0,0,1,91.9,13.073a8.081,8.081,0,0,1,2.78-.4.68.68,0,0,1,.5.2.662.662,0,0,1,.195.488v1.708a.658.658,0,0,1-.195.495.7.7,0,0,1-.5.191Z"/><path class="a" d="M99.861,26.381l1.471.19q1.584,0,2.213-2.324a4.592,4.592,0,0,1-3.191-1.153A9.205,9.205,0,0,1,98.152,19l-1.673-5.427a.572.572,0,0,1-.034-.207.483.483,0,0,1,.14-.287A.539.539,0,0,1,97,12.9h2.349a1.029,1.029,0,0,1,.624.219.982.982,0,0,1,.387.544l1.472,4.764a7.519,7.519,0,0,0,1.118,2.427,1.706,1.706,0,0,0,1.343.673l2.236-7.864a1.057,1.057,0,0,1,.352-.544.9.9,0,0,1,.591-.219h2.37a.489.489,0,0,1,.417.179.542.542,0,0,1,.134.3.65.65,0,0,1-.023.2l-2.943,10.493a9.356,9.356,0,0,1-1.949,3.978,4,4,0,0,1-2.994,1.191A17.2,17.2,0,0,1,99.9,29.1a1.987,1.987,0,0,1-.95-.332.639.639,0,0,1-.191-.456V27.077a.691.691,0,0,1,.191-.5.661.661,0,0,1,.494-.2Z"/><path class="e" d="M36.885,41.864a.642.642,0,0,1,.644-.663H41.3a6.35,6.35,0,0,1,4.25,1.177,4.7,4.7,0,0,1,1.343,3.716,4.674,4.674,0,0,1-1.343,3.7,6.356,6.356,0,0,1-4.25,1.177H37.529a.652.652,0,0,1-.451-.175.559.559,0,0,1-.193-.433Zm2.539,7.176h1.8a5.051,5.051,0,0,0,1.9-.286,1.722,1.722,0,0,0,.956-.92,5.613,5.613,0,0,0,0-3.477,1.761,1.761,0,0,0-.956-.93,4.913,4.913,0,0,0-1.9-.294h-1.8Z"/><path class="e" d="M48.236,44.127a.376.376,0,0,1,.12-.293.419.419,0,0,1,.3-.112h1.49a.408.408,0,0,1,.3.119.39.39,0,0,1,.12.286v6.438a.385.385,0,0,1-.12.285.41.41,0,0,1-.3.121h-1.49a.406.406,0,0,1-.3-.121.385.385,0,0,1-.12-.285Zm1.178-.792a1.069,1.069,0,1,0-.755-.313A1.025,1.025,0,0,0,49.414,43.335Z"/><path class="e" d="M51.86,47.254a3.255,3.255,0,0,1,1.076-2.6A4.547,4.547,0,0,1,56,43.722a9.536,9.536,0,0,1,2.034.231,5.556,5.556,0,0,1,1.59.543v6.346a2.658,2.658,0,0,1-.974,2.254,4.542,4.542,0,0,1-2.8.744,6.485,6.485,0,0,1-2.8-.467,1.571,1.571,0,0,1-.939-1.5.41.41,0,0,1,.423-.424h1.012a.892.892,0,0,1,.754.368,1.673,1.673,0,0,0,1.343.46,1.969,1.969,0,0,0,1.288-.313,1.468,1.468,0,0,0,.349-1.122v-.331a7.479,7.479,0,0,1-2.023.293,3.306,3.306,0,0,1-2.475-.947A3.559,3.559,0,0,1,51.86,47.254Zm2.41,0q0,1.893,1.545,1.895a6.6,6.6,0,0,0,1.472-.2v-3.4a5.428,5.428,0,0,0-1.435-.148Q54.271,45.4,54.27,47.254Z"/><path class="e" d="M60.82,44.127a.376.376,0,0,1,.12-.293.419.419,0,0,1,.3-.112h1.49a.4.4,0,0,1,.3.119.387.387,0,0,1,.121.286v6.438a.382.382,0,0,1-.121.285.4.4,0,0,1-.3.121h-1.49a.406.406,0,0,1-.3-.121.385.385,0,0,1-.12-.285ZM62,43.335a1.069,1.069,0,1,0-.754-.313A1.025,1.025,0,0,0,62,43.335Z"/><path class="e" d="M68.842,49.3h.238a.411.411,0,0,1,.3.119.393.393,0,0,1,.119.286v.717a.4.4,0,0,1-.119.276.457.457,0,0,1-.3.147,9.663,9.663,0,0,1-1.784.129q-2.907,0-2.906-3.018V41.607a.375.375,0,0,1,.119-.295.43.43,0,0,1,.3-.111h1.509a.41.41,0,0,1,.285.111.383.383,0,0,1,.12.295v2.115h1.9a.394.394,0,0,1,.284.112.377.377,0,0,1,.121.293v.809a.379.379,0,0,1-.121.294.4.4,0,0,1-.284.111h-1.9v2.612a1.588,1.588,0,0,0,.32,1.058,1.092,1.092,0,0,0,.875.376Z"/><path class="e" d="M70.625,48.725a1.845,1.845,0,0,1,.884-1.628,4.172,4.172,0,0,1,2.318-.579h2.245a1.363,1.363,0,0,0-.332-1.049,1.765,1.765,0,0,0-1.159-.293,1.533,1.533,0,0,0-1.158.385,1.08,1.08,0,0,1-.828.388H71.582a.419.419,0,0,1-.3-.112.357.357,0,0,1-.119-.276q0-1.838,3.7-1.839a4.235,4.235,0,0,1,2.585.708,2.442,2.442,0,0,1,.948,2.088v3.918a.382.382,0,0,1-.406.406H76.679a.38.38,0,0,1-.4-.406v-.183a3.6,3.6,0,0,1-1.169.543,5.156,5.156,0,0,1-1.333.175,4.026,4.026,0,0,1-2.245-.589A1.87,1.87,0,0,1,70.625,48.725Zm3.368-.772a1.178,1.178,0,0,0-.737.213.671.671,0,0,0-.276.559.689.689,0,0,0,.286.572,1.285,1.285,0,0,0,.8.22,3.931,3.931,0,0,0,2-.569v-1Z"/><path class="e" d="M79.6,41.625a.412.412,0,0,1,.423-.424h1.508a.381.381,0,0,1,.295.121.431.431,0,0,1,.11.3v8.922a.428.428,0,0,1-.11.3.381.381,0,0,1-.295.121H80.027a.412.412,0,0,1-.423-.424Z"/></g></svg>