<svg xmlns="http://www.w3.org/2000/svg" width="29.372" height="27.297" viewBox="0 0 29.372 27.297"><defs><style>.a{fill:#006b99;}</style></defs><g transform="translate(29.372 27.297) rotate(180)"><path class="a" d="M16.725,26.093v-4.9a1.2,1.2,0,0,1,1.2-1.2c2.371,0,3.661-2.432,3.84-7.233h-3.84a1.2,1.2,0,0,1-1.2-1.2V1.2a1.2,1.2,0,0,1,1.2-1.2H28.168a1.2,1.2,0,0,1,1.2,1.2V11.553a26.583,26.583,0,0,1-.688,6.278A15.1,15.1,0,0,1,26.546,22.8a10.431,10.431,0,0,1-3.631,3.318,10.338,10.338,0,0,1-4.987,1.18A1.2,1.2,0,0,1,16.725,26.093ZM1.2,19.989a1.2,1.2,0,0,0-1.2,1.2v4.9a1.2,1.2,0,0,0,1.2,1.2,10.335,10.335,0,0,0,4.986-1.18A10.414,10.414,0,0,0,9.821,22.8a15.087,15.087,0,0,0,2.138-4.969,26.568,26.568,0,0,0,.688-6.277V1.2a1.2,1.2,0,0,0-1.2-1.2H1.2A1.2,1.2,0,0,0,0,1.2V11.552a1.2,1.2,0,0,0,1.2,1.2H4.99C4.813,17.556,3.542,19.989,1.2,19.989Z" transform="translate(0)"/></g></svg>